<?xml version="1.0" encoding="utf-8"?>
<svg viewBox="88.967 231.078 329.94 93.447" width="329.94" height="93.447" xmlns="http://www.w3.org/2000/svg" xmlns:bx="https://boxy-svg.com">
  <defs>
    <style bx:fonts="Malgun Gothic">@font-face { font-family: "Malgun Gothic"; font-variant: normal; font-style: normal; font-weight: bold; src: ; }</style>
  </defs>
  <g id="Layer_x0020_1" style="" transform="matrix(0.184816, -0.001467, 0, 0.1918, -489.506886, -753.122419)">
    <g id="_2182885184112">
      <path class="fil0" d="M3130 5630.74c118.07,-2.08 207.49,17.41 283.08,-52.18 25.18,-23.18 48.9,-62.18 56.76,-110.29 9.72,-59.48 -7.78,-93.07 -27.69,-134.24 -25.52,5.74 -41.38,15.73 -55.04,35.29 21.8,48.81 33.15,80.47 2.5,133.6 -41.49,71.92 -115.76,64.59 -193.82,62.57l-1.16 -252.87c20.83,-1.54 92.9,2.23 102.6,-0.52 5.61,-1.59 1.42,0.21 6.18,-3.21l35.25 -34.36c8.44,-6.57 7.95,-4.2 15.31,-13.61 -27.53,-5.65 -43.54,-13.68 -77.08,-13.68l-146.89 0.28 -0 383.22z" style="fill: rgb(255, 77, 0);"/>
      <path class="fil1" d="M3306.65 5543.79c25.53,-5.73 42.21,-16.67 54.96,-35.21 -24.28,-53.25 -35.57,-104.09 15.64,-157.25 41.62,-43.2 98.99,-44.41 175.65,-38.74l1.48 53.72 64.33 -0.08 0.06 -119.03c-115.67,1.34 -209.62,-15.75 -283.11,52.15 -24.02,22.2 -49.5,62.8 -56.75,109.56 -9.04,58.26 6.77,94.56 27.74,134.89z" style="fill: rgb(255, 154, 0);"/>
      <path class="fil1" d="M3487.96 5495.99l66.19 2.07 -0.31 67.18c-21.64,1.8 -91.4,-2.42 -102.39,0.66 -12.8,3.59 -23.43,24.74 -41.09,37.75 -9.11,6.7 -7.93,3.59 -15.57,13.27 89.79,21.17 127.06,12.87 223.94,13.86l-0.13 -197.67 -130.43 0.43 -0.22 62.46z" style="fill: rgb(255, 154, 0);"/>
    </g>
    <text x="3702.07" y="5555.49" class="fil2 fnt0" style="white-space: pre; fill: rgb(55, 52, 53); font-family: &quot;Malgun Gothic&quot;; font-size: 356.25px; font-weight: 700; line-height: 570px; perspective-origin: 1820.44px 2089.41px;">Sumize</text>
  </g>
</svg>